<?xml version="1.0" encoding="UTF-8" standalone="no"?><!DOCTYPE svg PUBLIC "-//W3C//DTD SVG 1.1//EN" "http://www.w3.org/Graphics/SVG/1.1/DTD/svg11.dtd"><svg width="100%" height="100%" viewBox="0 0 4267 3200" version="1.1" xmlns="http://www.w3.org/2000/svg" xmlns:xlink="http://www.w3.org/1999/xlink" xml:space="preserve" xmlns:serif="http://www.serif.com/" style="fill-rule:evenodd;clip-rule:evenodd;stroke-linecap:round;stroke-linejoin:round;stroke-miterlimit:1.5;"><g><g><path d="M1079.88,18.862c279.725,14.267 1525.17,532.621 2356.08,1036.05c441.869,267.715 766.509,531.208 766.347,712.426c-0.467,521.987 -2696.75,1405.31 -3125.23,1383.45c-428.48,-21.854 553.883,-992.591 554.349,-1514.58c0.467,-521.987 -980.029,-1639.2 -551.549,-1617.35Z" style="fill:#f70;stroke:#000;stroke-width:2.08px;"/><path d="M3399.09,1440.91c16.16,-60.155 442.467,70.131 469.215,271.385c14.664,110.338 -352.738,343.574 -431.253,286.111c-73.466,-53.767 -53.598,-499.287 -37.962,-557.496Z" style="fill:#edebeb;stroke:#000;stroke-width:2.08px;"/><path d="M2624.82,1507.42l133.079,91.483l-66.54,86.654l107.663,33.099l-50.831,148.022l-107.663,-33.099l-0,107.11l-164.495,0l0,-107.11l-107.663,33.099l-50.831,-148.022l107.663,-33.099l-66.54,-86.654l133.079,-91.483l66.54,86.654l66.539,-86.654Z" style="fill:#b33d3d;"/><g><path d="M1658.39,599.211l926.279,720.992l-926.828,0l0.549,-720.992Z" style="fill:#f4e9df;"/><path d="M1660.02,2838.5l926.829,-720.992l-926.829,0l-0,720.992Z" style="fill:#f4e9df;"/></g><g><rect x="3503.35" y="1148.97" width="362.326" height="78.342" style="fill:#0c0c0c;"/><rect x="3467.36" y="2259.95" width="362.326" height="78.342"/></g><g><path d="M-0.998,1626c-0,0 364.826,497.477 1144.88,501.655c273.884,1.467 497.256,-219.702 498.503,-493.588c1.248,-273.885 -220.099,-497.436 -493.984,-498.903c-780.05,-4.178 -1149.4,490.836 -1149.4,490.836Z" style="fill:#f4e9df;"/><path d="M298.297,1632.77c-0,0 311.456,323.126 976.411,326.688c177.676,0.952 322.583,-142.526 323.392,-320.203c0.81,-177.676 -142.784,-322.7 -320.46,-323.651c-664.955,-3.562 -979.343,317.166 -979.343,317.166Z" style="fill:#faf529;"/><path d="M517.997,1639.73c0,0 261.199,209.937 818.265,212.921c115.262,0.617 209.267,-92.461 209.792,-207.724c0.525,-115.263 -92.628,-209.343 -207.89,-209.961c-557.066,-2.983 -820.167,204.764 -820.167,204.764Z" style="fill:#fac929;"/></g></g></g></svg>