<?xml version="1.0" encoding="UTF-8" standalone="no"?><!DOCTYPE svg PUBLIC "-//W3C//DTD SVG 1.1//EN" "http://www.w3.org/Graphics/SVG/1.1/DTD/svg11.dtd"><svg width="100%" height="100%" viewBox="0 0 17780 13334" version="1.1" xmlns="http://www.w3.org/2000/svg" xmlns:xlink="http://www.w3.org/1999/xlink" xml:space="preserve" xmlns:serif="http://www.serif.com/" style="fill-rule:evenodd;clip-rule:evenodd;stroke-linecap:round;stroke-linejoin:round;stroke-miterlimit:1.5;"><g><g><path d="M4499.5,78.592c1165.52,59.445 6354.88,2219.25 9817,4316.88c1841.12,1115.48 3193.79,2213.37 3193.11,2968.44c-1.945,2174.95 -11236.5,5855.46 -13021.8,5764.38c-1785.33,-91.058 2307.85,-4135.8 2309.79,-6310.75c1.946,-2174.95 -4083.45,-6830 -2298.12,-6738.96l0.013,0.017Z" style="fill:#f70;stroke:#000;stroke-width:8.67px;"/><path d="M14162.9,6003.79c67.333,-250.646 1843.61,292.212 1955.06,1130.77c61.1,459.741 -1469.74,1431.56 -1796.89,1192.13c-306.108,-224.03 -223.325,-2080.36 -158.175,-2322.9Z" style="fill:#edebeb;stroke:#000;stroke-width:8.67px;"/><path d="M10936.8,6280.92l554.496,381.179l-277.25,361.058l448.596,137.913l-211.796,616.758l-448.596,-137.913l0,446.292l-685.396,0l0,-446.292l-448.596,137.913l-211.795,-616.758l448.595,-137.913l-277.25,-361.058l554.496,-381.179l277.25,361.058l277.246,-361.058Z" style="fill:#b33d3d;"/><g><path d="M6909.96,2496.71l3859.5,3004.13l-3861.78,-0l2.287,-3004.13Z" style="fill:#f4e9df;"/><path d="M6916.75,11827.1l3861.79,-3004.13l-3861.79,0l0,3004.13Z" style="fill:#f4e9df;"/></g><g><rect x="14597.3" y="4787.38" width="1509.69" height="326.425" style="fill:#0c0c0c;"/><rect x="14447.3" y="9416.46" width="1509.69" height="326.425"/></g><g><path d="M-4.158,6775c-0,0 1520.11,2072.82 4770.33,2090.23c1141.18,6.113 2071.9,-915.425 2077.1,-2056.62c5.2,-1141.19 -917.079,-2072.65 -2058.27,-2078.76c-3250.21,-17.408 -4789.17,2045.15 -4789.17,2045.15l0.005,0Z" style="fill:#f4e9df;"/><path d="M1242.9,6803.21c0,0 1297.73,1346.36 4068.38,1361.2c740.317,3.967 1344.1,-593.858 1347.47,-1334.18c3.375,-740.316 -594.933,-1344.58 -1335.25,-1348.55c-2770.65,-14.841 -4080.6,1321.53 -4080.6,1321.53Z" style="fill:#faf529;"/><path d="M2158.32,6832.21c-0,0 1088.33,874.738 3409.44,887.171c480.259,2.571 871.946,-385.254 874.134,-865.516c2.187,-480.263 -385.95,-872.263 -866.209,-874.838c-2321.11,-12.429 -3417.36,853.183 -3417.36,853.183Z" style="fill:#fac929;"/></g></g><path d="M15045.2,3643.22l312.588,908.158l602.372,-280.636l-96.595,627.521l1011.55,0l-818.364,561.273l468.881,454.079l-662.071,107.193l312.587,908.158l-818.364,-561.273l-312.588,561.273l-312.587,-561.273l-818.365,561.273l312.587,-908.158l-662.071,-107.193l468.882,-454.079l-818.365,-561.273l1011.55,0l-96.595,-627.521l602.373,280.636l312.587,-908.158Z" style="fill:#faf529;"/><path d="M10773.3,9217.15l312.587,908.158l602.373,-280.636l-96.595,627.521l1011.55,0l-818.365,561.273l468.882,454.078l-662.071,107.194l312.587,908.158l-818.365,-561.273l-312.587,561.273l-312.588,-561.273l-818.364,561.273l312.587,-908.158l-662.071,-107.194l468.882,-454.078l-818.365,-561.273l1011.55,0l-96.595,-627.521l602.372,280.636l312.588,-908.158Z" style="fill:#faf529;"/><path d="M8302.25,0l312.587,908.158l602.372,-280.636l-96.594,627.521l1011.55,0l-818.365,561.272l468.882,454.079l-662.071,107.194l312.587,908.158l-818.365,-561.273l-312.587,561.273l-312.588,-561.273l-818.364,561.273l312.587,-908.158l-662.071,-107.194l468.881,-454.079l-818.364,-561.272l1011.55,0l-96.595,-627.521l602.372,280.636l312.588,-908.158Z" style="fill:#faf529;"/></g></svg>