<?xml version="1.0" encoding="UTF-8" standalone="no"?><!DOCTYPE svg PUBLIC "-//W3C//DTD SVG 1.1//EN" "http://www.w3.org/Graphics/SVG/1.1/DTD/svg11.dtd"><svg width="100%" height="100%" viewBox="0 0 3334 2500" version="1.1" xmlns="http://www.w3.org/2000/svg" xmlns:xlink="http://www.w3.org/1999/xlink" xml:space="preserve" xmlns:serif="http://www.serif.com/" style="fill-rule:evenodd;clip-rule:evenodd;stroke-linejoin:round;stroke-miterlimit:2;"><rect x="1.2" y="0" width="3333.33" height="2500" style="fill:#242b58;"/><path d="M3046.59,2335.46l0.855,3.111l1.648,-0.961l-0.264,2.149l2.768,0l-2.239,1.923l1.283,1.556l-1.812,0.367l0.855,3.111l-2.239,-1.923l-0.855,1.923l-0.856,-1.923l-2.239,1.923l0.855,-3.111l-1.812,-0.367l1.283,-1.556l-2.239,-1.923l2.768,0l-0.264,-2.149l1.648,0.961l0.856,-3.111Z" style="fill:#fff;"/><path d="M3113.1,2012.63l1.191,0.883l2.296,-0.273l-0.368,0.611l3.855,-0l-3.119,0.546l1.787,0.442l-2.523,0.104l1.191,0.884l-3.119,-0.546l-1.191,0.546l-1.192,-0.546l-3.119,0.546l1.192,-0.884l-2.524,-0.104l1.787,-0.442l-3.119,-0.546l3.856,-0l-0.369,-0.611l2.296,0.273l1.192,-0.883Z" style="fill:#fff;"/><path d="M1724.2,2249.92l0.615,3.43l1.187,-1.06l-0.19,2.37l1.992,-0l-1.612,2.119l0.924,1.715l-1.304,0.405l0.615,3.43l-1.612,-2.12l-0.615,2.12l-0.616,-2.12l-1.612,2.12l0.616,-3.43l-1.304,-0.405l0.923,-1.715l-1.611,-2.119l1.992,-0l-0.19,-2.37l1.186,1.06l0.616,-3.43Z" style="fill:#fff;"/><path d="M2527.54,2346.72l0.379,10.204l0.73,-3.154l-0.117,7.051l1.226,0l-0.992,6.307l0.568,5.101l-0.802,1.205l0.378,10.204l-0.991,-6.307l-0.379,6.307l-0.379,-6.307l-0.992,6.307l0.379,-10.204l-0.803,-1.205l0.569,-5.101l-0.992,-6.307l1.226,0l-0.117,-7.051l0.73,3.154l0.379,-10.204Z" style="fill:#fff;"/><path d="M2027.16,2066.87l1.24,2.277l2.39,-0.703l-0.383,1.573l4.013,0l-3.247,1.408l1.86,1.139l-2.626,0.268l1.24,2.278l-3.247,-1.408l-1.24,1.408l-1.241,-1.408l-3.246,1.408l1.24,-2.278l-2.627,-0.268l1.86,-1.139l-3.247,-1.408l4.014,0l-0.383,-1.573l2.389,0.703l1.241,-2.277Z" style="fill:#fff;"/><path d="M2183.98,1444.53l1.309,1.799l2.524,-0.556l-0.404,1.243l4.238,0l-3.429,1.112l1.965,0.9l-2.774,0.212l1.309,1.8l-3.429,-1.112l-1.309,1.112l-1.31,-1.112l-3.429,1.112l1.31,-1.8l-2.775,-0.212l1.965,-0.9l-3.429,-1.112l4.239,0l-0.405,-1.243l2.524,0.556l1.31,-1.799Z" style="fill:#fff;"/><path d="M1589.86,240.661l0.333,4.992l0.641,-1.543l-0.103,3.45l1.078,-0l-0.872,3.085l0.5,2.496l-0.706,0.589l0.333,4.992l-0.871,-3.085l-0.333,3.085l-0.333,-3.085l-0.872,3.085l0.333,-4.992l-0.705,-0.589l0.499,-2.496l-0.872,-3.085l1.078,-0l-0.103,-3.45l0.642,1.543l0.333,-4.992Z" style="fill:#fff;"/><path d="M1724.2,561.87l0.585,1.771l1.129,-0.547l-0.181,1.224l1.894,0l-1.532,1.095l0.878,0.886l-1.24,0.209l0.585,1.772l-1.533,-1.095l-0.585,1.095l-0.586,-1.095l-1.533,1.095l0.586,-1.772l-1.24,-0.209l0.878,-0.886l-1.533,-1.095l1.895,0l-0.181,-1.224l1.128,0.547l0.586,-1.771Z" style="fill:#fff;"/><path d="M1940.14,191.013l1.29,9.456l2.487,-2.922l-0.399,6.533l4.176,0l-3.378,5.844l1.936,4.728l-2.734,1.117l1.291,9.455l-3.379,-5.844l-1.29,5.844l-1.291,-5.844l-3.379,5.844l1.291,-9.455l-2.733,-1.117l1.935,-4.728l-3.378,-5.844l4.176,0l-0.399,-6.533l2.487,2.922l1.291,-9.456Z" style="fill:#fff;"/><path d="M2169.98,191.013l1.533,4.276l2.955,-1.321l-0.474,2.955l4.962,-0l-4.014,2.643l2.3,2.138l-3.248,0.505l1.533,4.276l-4.014,-2.643l-1.533,2.643l-1.533,-2.643l-4.014,2.643l1.533,-4.276l-3.248,-0.505l2.3,-2.138l-4.014,-2.643l4.962,-0l-0.474,-2.955l2.955,1.321l1.533,-4.276Z" style="fill:#fff;"/><path d="M2922.62,208.119l2.13,5.179l4.104,-1.601l-0.658,3.579l6.892,0l-5.576,3.201l3.195,2.59l-4.511,0.611l2.13,5.18l-5.576,-3.201l-2.13,3.201l-2.129,-3.201l-5.576,3.201l2.13,-5.18l-4.511,-0.611l3.195,-2.59l-5.576,-3.201l6.892,0l-0.658,-3.579l4.104,1.601l2.129,-5.179Z" style="fill:#fff;"/><path d="M2672.16,633.982l3.122,8.131l6.018,-2.513l-0.965,5.618l10.105,0l-8.175,5.025l4.684,4.065l-6.614,0.96l3.123,8.13l-8.176,-5.025l-3.122,5.025l-3.123,-5.025l-8.175,5.025l3.122,-8.13l-6.614,-0.96l4.684,-4.065l-8.175,-5.025l10.105,0l-0.965,-5.618l6.018,2.513l3.123,-8.131Z" style="fill:#fff;"/><path d="M2663.02,206.485l1.485,9.232l2.862,-2.853l-0.459,6.379l4.805,0l-3.887,5.706l2.227,4.616l-3.145,1.089l1.485,9.232l-3.888,-5.705l-1.485,5.705l-1.485,-5.705l-3.887,5.705l1.485,-9.232l-3.146,-1.089l2.228,-4.616l-3.888,-5.706l4.806,0l-0.459,-6.379l2.861,2.853l1.485,-9.232Z" style="fill:#fff;"/><path d="M1087.41,228.836l0.537,8.058l1.035,-2.49l-0.166,5.568l1.739,-0l-1.407,4.979l0.806,4.029l-1.138,0.951l0.537,8.058l-1.406,-4.98l-0.537,4.98l-0.538,-4.98l-1.406,4.98l0.537,-8.058l-1.138,-0.951l0.806,-4.029l-1.406,-4.979l1.738,-0l-0.166,-5.568l1.035,2.49l0.538,-8.058Z" style="fill:#fff;"/><path d="M3003.66,1541.31l5.643,7.237l10.876,-2.236l-1.744,5.001l18.263,0l-14.775,4.473l8.465,3.619l-11.953,0.854l5.643,7.238l-14.775,-4.473l-5.643,4.473l-5.644,-4.473l-14.775,4.473l5.643,-7.238l-11.953,-0.854l8.465,-3.619l-14.775,-4.473l18.263,0l-1.744,-5.001l10.876,2.236l5.644,-7.237Z" style="fill:#fff;"/><path d="M2509.91,1842.84l4.966,13.209l9.568,-4.082l-1.534,9.127l16.068,0l-13,8.164l7.448,6.604l-10.516,1.56l4.965,13.209l-12.999,-8.164l-4.966,8.164l-4.965,-8.164l-12.999,8.164l4.965,-13.209l-10.517,-1.56l7.448,-6.604l-12.999,-8.164l16.068,0l-1.534,-9.127l9.568,4.082l4.965,-13.209Z" style="fill:#fff;"/><path d="M2401.29,2070.68l0.835,2.847l1.608,-0.88l-0.258,1.967l2.702,0l-2.186,1.759l1.252,1.424l-1.768,0.336l0.835,2.847l-2.185,-1.76l-0.835,1.76l-0.835,-1.76l-2.185,1.76l0.835,-2.847l-1.768,-0.336l1.252,-1.424l-2.185,-1.759l2.701,0l-0.258,-1.967l1.608,0.88l0.835,-2.847Z" style="fill:#fff;"/><path d="M1691.19,1757.28l3.984,5.202l7.678,-1.608l-1.232,3.595l12.893,-0l-10.43,3.214l5.976,2.601l-8.439,0.614l3.985,5.202l-10.431,-3.215l-3.984,3.215l-3.984,-3.215l-10.43,3.215l3.984,-5.202l-8.439,-0.614l5.976,-2.601l-10.43,-3.214l12.893,-0l-1.232,-3.595l7.678,1.608l3.984,-5.202Z" style="fill:#fff;"/><path d="M1497.05,1951.21l1.404,5.37l2.707,-1.659l-0.434,3.71l4.545,0l-3.677,3.319l2.106,2.685l-2.974,0.634l1.404,5.37l-3.677,-3.318l-1.404,3.318l-1.405,-3.318l-3.677,3.318l1.405,-5.37l-2.975,-0.634l2.107,-2.685l-3.677,-3.319l4.545,0l-0.434,-3.71l2.706,1.659l1.405,-5.37Z" style="fill:#fff;"/><path d="M331.873,729.051l2.62,13.975l5.048,-4.319l-0.81,9.656l8.477,0l-6.858,8.637l3.93,6.987l-5.549,1.65l2.62,13.974l-6.858,-8.637l-2.62,8.637l-2.619,-8.637l-6.858,8.637l2.619,-13.974l-5.548,-1.65l3.929,-6.987l-6.858,-8.637l8.477,0l-0.809,-9.656l5.048,4.319l2.619,-13.975Z" style="fill:#fff;"/><path d="M480.032,913.97l5.928,16.933l11.425,-5.233l-1.832,11.7l19.185,0l-15.521,10.465l8.892,8.467l-12.556,1.998l5.928,16.933l-15.521,-10.465l-5.928,10.465l-5.928,-10.465l-15.521,10.465l5.928,-16.933l-12.556,-1.998l8.892,-8.467l-15.521,-10.465l19.185,0l-1.832,-11.7l11.425,5.233l5.928,-16.933Z" style="fill:#fff;"/><path d="M870.058,1389.73l2.889,6.55l5.567,-2.024l-0.893,4.526l9.349,-0l-7.564,4.048l4.334,3.275l-6.119,0.773l2.889,6.55l-7.563,-4.048l-2.889,4.048l-2.889,-4.048l-7.563,4.048l2.888,-6.55l-6.118,-0.773l4.333,-3.275l-7.563,-4.048l9.348,-0l-0.892,-4.526l5.567,2.024l2.889,-6.55Z" style="fill:#fff;"/><path d="M2707.22,1481.02l1.888,4.108l3.639,-1.269l-0.583,2.838l6.111,0l-4.944,2.54l2.833,2.054l-4,0.485l1.888,4.108l-4.944,-2.539l-1.888,2.539l-1.889,-2.539l-4.944,2.539l1.889,-4.108l-4,-0.485l2.833,-2.054l-4.944,-2.54l6.111,0l-0.584,-2.838l3.639,1.269l1.889,-4.108Z" style="fill:#fff;"/><path d="M3048.78,667.961l1.774,15.273l3.42,-4.72l-0.548,10.553l5.742,0l-4.646,9.439l2.662,7.637l-3.758,1.802l1.774,15.273l-4.646,-9.439l-1.774,9.439l-1.774,-9.439l-4.646,9.439l1.774,-15.273l-3.758,-1.802l2.662,-7.637l-4.646,-9.439l5.742,0l-0.548,-10.553l3.42,4.72l1.774,-15.273Z" style="fill:#fff;"/><path d="M2876.44,392.684l1.104,1.161l2.128,-0.359l-0.341,0.803l3.572,-0l-2.89,0.718l1.656,0.581l-2.338,0.137l1.104,1.161l-2.891,-0.718l-1.104,0.718l-1.104,-0.718l-2.89,0.718l1.104,-1.161l-2.339,-0.137l1.656,-0.581l-2.89,-0.718l3.573,-0l-0.341,-0.803l2.127,0.359l1.104,-1.161Z" style="fill:#fff;"/><path d="M1638.99,1366.08l4.496,12.271l8.665,-3.792l-1.39,8.479l14.55,-0l-11.771,7.584l6.744,6.135l-9.523,1.448l4.496,12.271l-11.771,-7.583l-4.496,7.583l-4.496,-7.583l-11.771,7.583l4.496,-12.271l-9.523,-1.448l6.745,-6.135l-11.771,-7.584l14.549,-0l-1.389,-8.479l8.664,3.792l4.496,-12.271Z" style="fill:#fff;"/><path d="M1318.59,1210.96l0,17.658l2.335,-11.558l-2.335,11.558l4.67,-5.457l-4.67,5.457l3.778,4.414l-3.778,-4.414l2.886,14.285l-2.886,-14.285l0,14.285l0,-14.285l-2.886,14.285l2.886,-14.285l-3.778,4.414l3.778,-4.414l-4.67,-5.457l4.67,5.457l-2.335,-11.558l2.335,11.558l0,-17.658Z" style="fill:#fff;"/><path d="M918.449,1039.36l3.85,23.767l7.421,-7.344l-1.19,16.423l12.462,-0l-10.082,14.689l5.777,11.884l-8.157,2.806l3.851,23.768l-10.082,-14.69l-3.85,14.69l-3.851,-14.69l-10.082,14.69l3.851,-23.768l-8.156,-2.806l5.776,-11.884l-10.082,-14.689l12.462,-0l-1.19,-16.423l7.421,7.344l3.851,-23.767Z" style="fill:#fff;"/><path d="M1318.59,859.721l0.759,5.384l1.462,-1.664l-0.235,3.72l2.455,0l-1.986,3.328l1.138,2.692l-1.607,0.635l0.759,5.384l-1.986,-3.327l-0.759,3.327l-0.758,-3.327l-1.987,3.327l0.759,-5.384l-1.607,-0.635l1.138,-2.692l-1.986,-3.328l2.455,0l-0.234,-3.72l1.462,1.664l0.758,-5.384Z" style="fill:#fff;"/><path d="M1521.26,879.2l3.857,9.61l7.432,-2.969l-1.192,6.64l12.481,0l-10.097,5.939l5.785,4.806l-8.169,1.134l3.857,9.61l-10.097,-5.939l-3.857,5.939l-3.857,-5.939l-10.097,5.939l3.857,-9.61l-8.169,-1.134l5.785,-4.806l-10.097,-5.939l12.481,0l-1.192,-6.64l7.432,2.969l3.857,-9.61Z" style="fill:#fff;"/><path d="M524.945,1595.79l1.438,24.182l2.772,-7.473l-0.444,16.709l4.655,0l-3.766,14.945l2.158,12.091l-3.047,2.855l1.438,24.181l-3.766,-14.945l-1.438,14.945l-1.439,-14.945l-3.766,14.945l1.439,-24.181l-3.047,-2.855l2.158,-12.091l-3.766,-14.945l4.655,0l-0.445,-16.709l2.772,7.473l1.439,-24.182Z" style="fill:#fff;"/><path d="M2062.52,389.423l5.609,18.447l10.809,-5.701l-1.734,12.747l18.152,-0l-14.685,11.401l8.414,9.223l-11.881,2.178l5.609,18.447l-14.684,-11.401l-5.609,11.401l-5.609,-11.401l-14.685,11.401l5.609,-18.447l-11.88,-2.178l8.413,-9.223l-14.684,-11.401l18.151,-0l-1.733,-12.747l10.809,5.701l5.609,-18.447Z" style="fill:#fff;"/><path d="M2381.89,676.27l4.343,12.038l8.367,-3.72l-1.342,8.318l14.052,0l-11.368,7.44l6.513,6.019l-9.197,1.421l4.343,12.039l-11.368,-7.44l-4.343,7.44l-4.342,-7.44l-11.368,7.44l4.342,-12.039l-9.197,-1.421l6.514,-6.019l-11.368,-7.44l14.051,0l-1.342,-8.318l8.368,3.72l4.342,-12.038Z" style="fill:#fff;"/><path d="M2452.65,993.78l7.366,12.599l14.194,-3.894l-2.276,8.706l23.835,-0l-19.283,7.786l11.048,6.3l-15.6,1.487l7.365,12.599l-19.283,-7.787l-7.366,7.787l-7.365,-7.787l-19.283,7.787l7.365,-12.599l-15.6,-1.487l11.048,-6.3l-19.283,-7.786l23.835,-0l-2.276,-8.706l14.194,3.894l7.365,-12.599Z" style="fill:#fff;"/><path d="M1981.68,1210.96l2.584,9.761l4.98,-3.017l-0.799,6.745l8.362,0l-6.765,6.033l3.876,4.88l-5.473,1.153l2.584,9.761l-6.765,-6.033l-2.584,6.033l-2.584,-6.033l-6.765,6.033l2.584,-9.761l-5.473,-1.153l3.876,-4.88l-6.765,-6.033l8.362,0l-0.799,-6.745l4.98,3.017l2.584,-9.761Z" style="fill:#fff;"/><path d="M1055.02,676.27l2.56,13.309l4.934,-4.113l-0.791,9.197l8.285,-0l-6.703,8.225l3.84,6.655l-5.422,1.571l2.56,13.309l-6.703,-8.226l-2.56,8.226l-2.561,-8.226l-6.703,8.226l2.56,-13.309l-5.422,-1.571l3.84,-6.655l-6.703,-8.225l8.285,-0l-0.791,-9.197l4.934,4.113l2.561,-13.309Z" style="fill:#fff;"/><path d="M583.265,203.147l6.477,16.206l12.48,-5.008l-2.001,11.198l20.957,0l-16.955,10.016l9.715,8.103l-13.717,1.913l6.476,16.206l-16.955,-10.016l-6.477,10.016l-6.476,-10.016l-16.955,10.016l6.476,-16.206l-13.717,-1.913l9.714,-8.103l-16.955,-10.016l20.958,0l-2.001,-11.198l12.48,5.008l6.476,-16.206Z" style="fill:#fff;"/><path d="M115.59,2240.85l1.388,3.571l2.676,-1.104l-0.429,2.468l4.492,-0l-3.634,2.207l2.082,1.785l-2.94,0.422l1.388,3.571l-3.635,-2.207l-1.388,2.207l-1.388,-2.207l-3.634,2.207l1.388,-3.571l-2.94,-0.422l2.082,-1.785l-3.634,-2.207l4.492,-0l-0.429,-2.468l2.675,1.104l1.388,-3.571Z" style="fill:#fff;"/><path d="M373.395,2372.79l2.09,3.138l4.027,-0.97l-0.646,2.169l6.763,-0l-5.471,1.939l3.134,1.57l-4.426,0.37l2.09,3.138l-5.471,-1.939l-2.09,1.939l-2.089,-1.939l-5.471,1.939l2.09,-3.138l-4.427,-0.37l3.135,-1.57l-5.471,-1.939l6.763,-0l-0.646,-2.169l4.027,0.97l2.089,-3.138Z" style="fill:#fff;"/><path d="M814.844,2247.31l1.265,1.615l2.438,-0.499l-0.391,1.115l4.095,0l-3.313,0.999l1.899,0.807l-2.681,0.191l1.266,1.615l-3.313,-0.998l-1.265,0.998l-1.266,-0.998l-3.313,0.998l1.266,-1.615l-2.68,-0.191l1.898,-0.807l-3.313,-0.999l4.095,0l-0.391,-1.115l2.438,0.499l1.266,-1.615Z" style="fill:#fff;"/><path d="M811.14,1970.64l0.602,9.864l1.159,-3.048l-0.186,6.816l1.947,0l-1.575,6.096l0.903,4.932l-1.275,1.165l0.602,9.864l-1.575,-6.097l-0.602,6.097l-0.602,-6.097l-1.575,6.097l0.602,-9.864l-1.275,-1.165l0.903,-4.932l-1.576,-6.096l1.948,0l-0.186,-6.816l1.159,3.048l0.602,-9.864Z" style="fill:#fff;"/></svg>